<?xml version="1.0" standalone="no"?>
<!DOCTYPE svg PUBLIC "-//W3C//DTD SVG 20010904//EN"
 "http://www.w3.org/TR/2001/REC-SVG-20010904/DTD/svg10.dtd">
<svg version="1.0" xmlns="http://www.w3.org/2000/svg"
 width="100.000000pt" height="100.000000pt" viewBox="0 0 100.000000 100.000000"
 preserveAspectRatio="xMidYMid meet">

<g transform="translate(0.000000,100.000000) scale(0.100000,-0.100000)"
fill="#017143" stroke="none">
<path d="M400 985 c-130 -29 -252 -114 -322 -225 -28 -43 -60 -136 -72 -209
-6 -33 -5 -33 27 -28 17 3 53 13 79 23 26 10 50 16 53 12 13 -13 -6 -48 -26
-48 -11 0 -37 -9 -59 -20 -22 -11 -48 -20 -59 -20 -14 0 -19 -5 -15 -15 8 -20
27 -19 74 5 22 11 44 20 50 20 17 0 11 -40 -7 -46 -10 -3 -30 -12 -45 -20 -14
-8 -33 -14 -42 -14 -9 0 -16 -8 -16 -20 0 -25 17 -25 55 0 37 25 55 25 55 3 0
-12 -17 -25 -45 -38 -42 -18 -54 -33 -39 -48 3 -3 22 3 42 13 28 15 38 17 44
7 5 -7 1 -16 -8 -22 -46 -28 -59 -44 -47 -55 9 -10 17 -8 37 6 14 11 26 24 26
30 0 6 18 18 40 27 27 10 40 22 40 34 0 11 14 38 32 62 l31 43 -12 63 c-14 68
-10 91 21 143 25 41 35 35 14 -7 -19 -35 -20 -85 -5 -146 10 -39 9 -48 -10
-77 -51 -81 -54 -91 -38 -131 l16 -36 -33 -21 c-19 -11 -41 -20 -50 -20 -10 0
-14 -5 -11 -11 4 -6 -1 -16 -11 -23 -10 -8 -15 -20 -11 -30 5 -14 10 -14 26
-4 24 15 39 4 22 -15 -9 -11 -8 -17 2 -26 11 -9 20 -3 42 31 15 23 31 53 35
67 7 24 8 24 15 7 6 -13 0 -36 -20 -73 -19 -37 -25 -57 -18 -64 8 -8 19 7 37
46 32 70 32 89 1 140 -33 54 -32 92 5 141 34 45 36 63 14 128 -20 59 -12 107
26 149 l30 32 -20 -40 c-24 -47 -25 -93 -5 -142 22 -52 19 -83 -15 -133 -16
-25 -30 -53 -30 -63 0 -10 14 -44 31 -77 33 -63 32 -78 -2 -134 -20 -33 -25
-71 -10 -81 5 -3 15 12 21 32 7 21 17 43 22 50 5 6 13 25 17 41 8 25 3 42 -24
97 -37 73 -37 82 9 150 31 46 31 40 5 116 -24 69 -22 123 7 163 27 36 35 32
18 -9 -19 -47 -17 -92 6 -144 25 -54 25 -101 1 -132 -45 -59 -46 -65 -5 -144
l38 -73 -28 -66 c-28 -66 -31 -96 -8 -104 7 -2 12 6 12 22 0 15 11 53 25 86
28 65 25 81 -20 148 -30 44 -32 71 -5 104 11 14 24 36 29 49 8 21 15 24 60 23
46 0 54 -4 66 -27 7 -15 21 -37 29 -49 23 -33 20 -58 -14 -111 -35 -56 -37
-89 -10 -148 11 -24 20 -57 20 -72 0 -18 5 -27 12 -25 22 8 20 44 -7 108 l-27
63 36 68 c20 38 36 72 36 77 0 5 -13 29 -30 53 -35 52 -37 81 -10 149 24 61
25 110 4 152 -11 21 -12 29 -3 26 21 -7 49 -71 49 -111 0 -21 -7 -51 -15 -68
-26 -49 -22 -92 14 -145 36 -55 35 -73 -6 -135 -30 -45 -28 -74 9 -161 17 -40
28 -54 37 -49 10 7 6 24 -18 79 -33 76 -33 87 8 147 29 42 26 78 -9 127 -34
46 -36 67 -15 128 21 58 19 109 -5 148 -13 21 -16 32 -8 30 7 -3 24 -26 37
-52 26 -51 26 -46 -6 -181 -2 -12 7 -36 22 -59 46 -68 47 -79 15 -143 -17 -32
-30 -67 -29 -78 0 -32 55 -130 64 -116 4 8 -4 36 -20 66 -21 42 -24 58 -16 72
10 17 10 17 11 -1 0 -11 14 -41 31 -68 25 -39 34 -46 45 -37 11 9 12 15 3 26
-17 19 -2 30 22 15 16 -10 21 -10 26 4 4 10 0 22 -9 28 -8 6 -13 16 -11 22 2
7 -8 15 -23 18 -14 4 -37 14 -49 22 -23 15 -23 17 -8 52 16 39 13 49 -39 130
-18 29 -19 38 -9 71 16 54 14 117 -5 152 -21 42 -11 48 14 7 31 -52 35 -75 21
-142 -12 -62 -12 -64 14 -98 15 -19 32 -49 38 -66 7 -20 21 -34 41 -41 42 -15
46 -14 50 9 3 20 3 20 39 1 20 -11 40 -17 43 -14 15 15 3 30 -39 48 -28 13
-45 26 -45 38 0 22 17 22 58 -3 41 -25 52 -25 52 0 0 13 -7 20 -18 20 -10 0
-27 7 -38 15 -10 8 -27 15 -36 15 -17 0 -35 36 -24 47 3 4 28 -4 55 -17 48
-22 81 -22 81 0 0 5 -9 10 -20 10 -12 0 -38 9 -60 20 -22 11 -46 20 -54 20
-17 0 -41 38 -31 48 3 4 27 -2 53 -12 56 -22 112 -32 112 -20 -1 36 -33 151
-53 191 -103 203 -334 316 -547 268z m118 -50 c9 -19 19 -25 42 -25 35 0 39
-13 10 -33 -16 -11 -19 -21 -14 -41 3 -14 7 -26 8 -26 1 0 19 9 41 20 22 11
47 20 57 20 17 0 17 -2 3 -30 -20 -39 -20 -39 23 -25 20 7 38 12 40 10 1 -1
-10 -23 -25 -49 -22 -37 -32 -45 -48 -40 -120 36 -183 38 -278 7 -27 -8 -49
-13 -51 -12 -41 64 -56 89 -56 93 0 5 40 -6 75 -20 18 -7 18 -6 -3 29 l-21 37
22 0 c12 0 37 -9 56 -21 27 -16 36 -18 42 -7 15 22 10 47 -11 58 -30 16 -24
30 14 30 28 0 35 4 40 25 4 14 10 25 15 25 4 0 13 -11 19 -25z m-362 -226 c13
-26 16 -27 69 -22 30 3 55 2 55 -3 0 -5 -21 -29 -46 -54 -33 -33 -54 -45 -79
-47 -18 -1 -47 -9 -64 -17 -29 -15 -71 -22 -71 -11 0 3 16 25 35 50 19 25 37
60 40 78 3 17 8 41 10 52 2 11 4 22 4 24 2 9 34 -25 47 -50z m744 8 c0 -35 30
-99 63 -134 31 -35 13 -39 -59 -15 -36 12 -70 19 -75 16 -10 -6 -109 88 -109
102 0 4 27 4 60 1 45 -4 60 -2 60 8 0 19 40 66 51 60 5 -4 9 -21 9 -38z m-324
-18 c29 -27 31 -43 4 -34 -28 9 -60 -12 -60 -38 0 -20 4 -22 42 -19 l41 4 -6
-37 c-8 -48 -30 -81 -67 -100 -27 -14 -33 -14 -59 -1 -35 19 -61 57 -68 102
l-6 34 42 0 c34 0 41 3 41 20 0 24 -34 43 -62 34 -21 -6 -22 -6 -7 17 35 53
118 62 165 18z m-116 -59 c0 -5 -14 -10 -31 -10 -17 0 -28 4 -24 10 3 6 17 10
31 10 13 0 24 -4 24 -10z m140 0 c0 -5 -13 -10 -30 -10 -16 0 -30 5 -30 10 0
6 14 10 30 10 17 0 30 -4 30 -10z"/>
<path d="M476 805 c-18 -14 -17 -15 24 -15 41 0 42 1 24 15 -10 8 -21 14 -24
14 -3 0 -14 -6 -24 -14z"/>
<path d="M480 566 c0 -9 30 -14 35 -6 4 6 -3 10 -14 10 -12 0 -21 -2 -21 -4z"/>
<path d="M475 520 c3 -5 15 -10 25 -10 10 0 22 5 25 10 4 6 -7 10 -25 10 -18
0 -29 -4 -25 -10z"/>
<path d="M867 283 c-12 -11 -8 -18 22 -36 36 -21 52 -6 25 24 -17 19 -35 24
-47 12z"/>
<path d="M120 215 c-6 -8 -9 -19 -5 -25 9 -14 45 6 45 25 0 19 -24 19 -40 0z"/>
<path d="M845 219 c-4 -6 1 -16 11 -24 24 -17 42 -2 24 20 -15 18 -26 19 -35
4z"/>
</g>
</svg>
